# xmcd
# Track frame offsets:
# 150
# 12767
# 30167
# 43290
# 57345
# 71905
# 85180
# 98170
# 107797
# 126785
# 137577
# 150307
#
# Disc length: 2179 seconds
# Revision: 6
# Processed by: cddbd v1.5.1PL2 Copyright (c) Steve Scherf et al.
# Submitted via: VisiTrax 2.10.0.248 - For more info visit www.synapsa.com
#
DISCID=9508810c
DTITLE=Lee Kernaghan - The Outback Club
DYEAR=1992
DGENRE=Country
TTITLE0=Boys From The Bush
TTITLE1=High Country
TTITLE2=She Waits By The Sliprails (The Bush Girl)
TTITLE3=Walkin' Out West
TTITLE4=Country Girls
TTITLE5=Country's Really Big These Days
TTITLE6=You're The Reason I Never Saw Hank Jr. Play
TTITLE7=Rejected
TTITLE8=Scots Of The Riverina
TTITLE9=You Don't Have To Go To Memphis
TTITLE10=Searchin' For Another You
TTITLE11=Tallarook
EXTD=
EXTT0=
EXTT1=
EXTT2=
EXTT3=
EXTT4=
EXTT5=
EXTT6=
EXTT7=
EXTT8=
EXTT9=
EXTT10=
EXTT11=
PLAYORDER=
